<?xml version="1.0" encoding="UTF-8"?><svg id="uuid-e9ae1f7a-dbb4-406a-b260-6b3b8da3a190" xmlns="http://www.w3.org/2000/svg" viewBox="0 0 673.3 700.5"><defs><style>.uuid-4b683be4-cb64-4b49-ac04-c11da620f766{fill:#762300;}.uuid-47cdd2af-a60e-4e66-bf56-4d87fb2ac106{fill:#fee7c2;}.uuid-d20ff3c3-fa16-41e3-b796-f79220cff51a{fill:#fdaa1a;}.uuid-87b41f63-21e9-49c9-9cc3-b7bd08946032{fill:#ef5609;}</style></defs><path class="uuid-47cdd2af-a60e-4e66-bf56-4d87fb2ac106" d="m514.7,700.1c-9.3-1.1-12.5-9-18.7-15.6-6.6-7.2-19.8-22.5-27.1-28.5-28.7-28.6-64-43.5-102.9-50.2-20.5,17.3-43.1,41.1-69.1,48-23.1,8.1-56.9,8.4-79.1-.1-23.7-10.5-17.3,1.9-34.7,14.2-12.6,12.7-43.5,33-54,9.7-2.4-19.5,13.2-36.4,21.7-52.1,30.5-46,19.3-40,73.2-41.2,17.8-1.8,35.1-11.9,42.8-28.1.4-1,11-15.4,4.8-12.2-65.9,36.3-163,34.4-220.1-19.5C-14.8,462.9,15.1,407.2,1.9,333.3c-14.7-31.3,58.8-10.3,70.6-6.1,18.4,6.9,34.7,15.5,49.9,29.3,33.4,26.7,42.8,64.5,58.6,100.8,16,31.9,54.2,50.2,89.6,40.9,11.1-2.4,11.4-6.5,15.3-15.9,2.9-6.6,8.1-15.6,11.1-22.8,3.6-6.4,7.8-13.8,11.4-20.2,8.5-12.7,2.6-9.3-7.1-6.4-36.6,11.8-24.2,16.4-44.8,35.7-17.5,15.5-49.7,15.9-61.9-7.5-24.3-45.6,40.8-88.8,76.3-105.9,3.7-4.7-11-.9-13.4-.9-12.1,1.8-36.6,2.1-49.1.5-49.3-2.9-99.3-24.8-122.1-70.3-5.7-10.6-7.7-15.8-11.5-26-1.8-4.7-8.9-14.3-.3-17.3,3.3-1.5,6.9,2.5,10,3.9,4.7,2.7,8.6,5.1,13.5,6.5,7.5,3.9,15.8,5.4,24.5,6.9,7.9,1.3,14.6,2.9,7.7-6.6-8.8-16.9-12.2-37-14.8-56.8-2.6-20.2,20.5,1.8,28.4,2.2,28.2,8.2,61,6,85.8,20.9,7.9,4,15.6,9.3,22.6,15.1,3.3,1.8,6.8,9.4,10.4,4.4,15-11.9,21.3-29.8,28.7-45.1,10.5-20.9,7.3-18.4,2.1-40.5-9.2-37.1-9.7-79.6-2.1-117,3.6-16.6,8.4-42.6,31.2-32.4,112.3,46.1,101.5,105,102.9,26.4.2-12.7,6.5-34.1,22.9-25.8,37.4,19.8,70,58,94.2,92.5,27.5,18.9,49.7,45.2,56.7,77.2,4.1,11.2,5.1,25.4,10.2,35.5,13.1,18.3,36.7,15.7,56.1,21.7,17.8,12.1.7,36.5-6.6,49.9-9.6,15.8-27.4,31.8-42.6,42.3-13.1,8.6-25.9,15.4-39.4,20.8-5.7,1.6-10.9,4.4-16.6,6-5.2,2.1-12.8.4-9,8.1,3.5,10.3,3.2,31.5-2.4,41.2,1,1.2-7.2,7.5-3,7.3,2.7,1.3,18.9,1.4,22.3,0,11.4-1,18-13.5,27-18.8,17.2-10.4,43.8-5.2,53.2,14.6,20.9,45.2-47.1,81.1-83,87-19.3,2.6-40.1,1.6-58.5-4.3-9.1-5.3-9.4,6.5-13.4,11.5-7.4,12.9-16.1,24.2-24.1,36.2,25.4,19.5,49.9,47.5,60.1,76.5,10.7-5.3,23.1-18.6,36-21,24.9-6.3,46.5,15.7,27.8,37.3-10.6,15.2-61.8,81.8-78.5,75.9Z"/><path class="uuid-d20ff3c3-fa16-41e3-b796-f79220cff51a" d="m514.7,700.1c-9.3-1.1-12.5-9-18.7-15.6-6.6-7.2-19.8-22.5-27.1-28.5-28.7-28.6-64-43.5-102.9-50.2-20.5,17.3-43.1,41.1-69.1,48-23.1,8.1-56.9,8.4-79.1-.1-23.7-10.5-17.3,1.9-34.7,14.2-12.6,12.7-43.5,33-54,9.7-2.4-19.5,13.2-36.4,21.7-52.1,30.5-46,19.3-40,73.2-41.2,17.8-1.8,35.1-11.9,42.8-28.1.4-1,11-15.4,4.8-12.2-65.9,36.3-163,34.4-220.1-19.5C-14.8,462.9,15.1,407.2,1.9,333.3c-14.7-31.3,58.8-10.3,70.6-6.1,18.4,6.9,34.7,15.5,49.9,29.3,33.4,26.7,42.8,64.5,58.6,100.8,16,31.9,54.2,50.2,89.6,40.9,11.1-2.4,11.4-6.5,15.3-15.9,2.9-6.6,8.1-15.6,11.1-22.8,3.6-6.4,7.8-13.8,11.4-20.2,8.5-12.7,2.6-9.3-7.1-6.4-36.6,11.8-24.2,16.4-44.8,35.7-17.5,15.5-49.7,15.9-61.9-7.5-24.3-45.6,40.8-88.8,76.3-105.9,3.7-4.7-11-.9-13.4-.9-12.1,1.8-36.6,2.1-49.1.5-49.3-2.9-99.3-24.8-122.1-70.3-5.7-10.6-7.7-15.8-11.5-26-1.8-4.7-8.9-14.3-.3-17.3,3.3-1.5,6.9,2.5,10,3.9,4.7,2.7,8.6,5.1,13.5,6.5,7.5,3.9,15.8,5.4,24.5,6.9,7.9,1.3,14.6,2.9,7.7-6.6-8.8-16.9-12.2-37-14.8-56.8-2.6-20.2,20.5,1.8,28.4,2.2,28.2,8.2,61,6,85.8,20.9,7.9,4,15.6,9.3,22.6,15.1,3.3,1.8,6.8,9.4,10.4,4.4,15-11.9,21.3-29.8,28.7-45.1,10.5-20.9,7.3-18.4,2.1-40.5-9.2-37.1-9.7-79.6-2.1-117,3.6-16.6,8.4-42.6,31.2-32.4,112.3,46.1,101.5,105,102.9,26.4.2-12.7,6.5-34.1,22.9-25.8,37.4,19.8,70,58,94.2,92.5,27.5,18.9,49.7,45.2,56.7,77.2,4.1,11.2,5.1,25.4,10.2,35.5,13.1,18.3,36.7,15.7,56.1,21.7,17.8,12.1.7,36.5-6.6,49.9-9.6,15.8-27.4,31.8-42.6,42.3-13.1,8.6-25.9,15.4-39.4,20.8-5.7,1.6-10.9,4.4-16.6,6-5.2,2.1-12.8.4-9,8.1,3.5,10.3,3.2,31.5-2.4,41.2,1,1.2-7.2,7.5-3,7.3,2.7,1.3,18.9,1.4,22.3,0,11.4-1,18-13.5,27-18.8,17.2-10.4,43.8-5.2,53.2,14.6,20.9,45.2-47.1,81.1-83,87-19.3,2.6-40.1,1.6-58.5-4.3-9.1-5.3-9.4,6.5-13.4,11.5-7.4,12.9-16.1,24.2-24.1,36.2,25.4,19.5,49.9,47.5,60.1,76.5,10.7-5.3,23.1-18.6,36-21,24.9-6.3,46.5,15.7,27.8,37.3-10.6,15.2-61.8,81.8-78.5,75.9Zm-58-178.6c18-23.7,34.8-49.4,43.2-76.7,13.3-35.5,3.6-20.6-23.2-24.6-11.5-1.2-24.8-2.6-35.6-4.8-12.8-5.7-11,1-13.3,12-16.9,81.6-54.7,69-6.5,80.2,7.3,2.4,13.8,4.4,20.4,8.4,3.2.9,11.8,7.7,15.1,5.5Zm-405-21c-.7-7,4.9-70.6,12.4-64.3,7.8,10.8,20.5,19.1,33.8,22.8,4.4,1-.4-9.7-.5-12-1.8-8.8-2-20.5-3-29.8.2-3.3-3.1-14.1.6-14.7,9.4-2.5,27.7-1.5,36.8,1.3,21.4,8.6,6-5.7.9-14.9-19-26-48.3-43.2-78-51.6-6-1.3-41.7-11.8-35.4,1.6,6.2,28.9-5.1,107.2,13.2,133.2.7,4,15.9,31.2,19.2,28.4Zm469-158.8c27.1-3,51.7-10.8,73.8-23.8,15.6-8.2,33.3-22.4,45.3-36.9,12.8-11.5-.3-11.1-9.5-20.5-5.2-6.8-8.5-2.1-14.7-.9-8.6,2.4-16,4.1-25.4,5-29.8,4.1-60.8-3.3-87.8-11.8-36-13.9-78.6-22.1-117.3-11.3-18.3,5.6-39.5,11.4-52.6,26.6,16.9,19.4,41.9,40.4,63.3,53.7,37.1,15.8,83.8,22,125,19.7Z"/><path class="uuid-87b41f63-21e9-49c9-9cc3-b7bd08946032" d="m514.7,700.1c-9.3-1.1-12.5-9-18.7-15.6-6.6-7.2-19.8-22.5-27.1-28.5-28.7-28.6-64-43.5-102.9-50.2-20.5,17.3-43.1,41.1-69.1,48-23.1,8.1-56.9,8.4-79.1-.1-23.7-10.5-17.3,1.9-34.7,14.2-12.6,12.7-43.5,33-54,9.7-2.4-19.5,13.2-36.4,21.7-52.1,30.5-46,19.3-40,73.2-41.2,17.8-1.8,35.1-11.9,42.8-28.1.4-1,11-15.4,4.8-12.2-65.9,36.3-163,34.4-220.1-19.5C-14.8,462.9,15.1,407.2,1.9,333.3c-14.7-31.3,58.8-10.3,70.6-6.1,18.4,6.9,34.7,15.5,49.9,29.3,33.4,26.7,42.8,64.5,58.6,100.8,16,31.9,54.2,50.2,89.6,40.9,11.1-2.4,11.4-6.5,15.3-15.9,2.9-6.6,8.1-15.6,11.1-22.8,3.6-6.4,7.8-13.8,11.4-20.2,8.5-12.7,2.6-9.3-7.1-6.4-36.6,11.8-24.2,16.4-44.8,35.7-17.5,15.5-49.7,15.9-61.9-7.5-24.3-45.6,40.8-88.8,76.3-105.9,3.7-4.7-11-.9-13.4-.9-12.1,1.8-36.6,2.1-49.1.5-49.3-2.9-99.3-24.8-122.1-70.3-5.7-10.6-7.7-15.8-11.5-26-1.8-4.7-8.9-14.3-.3-17.3,3.3-1.5,6.9,2.5,10,3.9,4.7,2.7,8.6,5.1,13.5,6.5,7.5,3.9,15.8,5.4,24.5,6.9,7.9,1.3,14.6,2.9,7.7-6.6-8.8-16.9-12.2-37-14.8-56.8-2.6-20.2,20.5,1.8,28.4,2.2,28.2,8.2,61,6,85.8,20.9,7.9,4,15.6,9.3,22.6,15.1,3.3,1.8,6.8,9.4,10.4,4.4,15-11.9,21.3-29.8,28.7-45.1,10.5-20.9,7.3-18.4,2.1-40.5-9.2-37.1-9.7-79.6-2.1-117,3.6-16.6,8.4-42.6,31.2-32.4,112.3,46.1,101.5,105,102.9,26.4.2-12.7,6.5-34.1,22.9-25.8,37.4,19.8,70,58,94.2,92.5,27.5,18.9,49.7,45.2,56.7,77.2,4.1,11.2,5.1,25.4,10.2,35.5,13.1,18.3,36.7,15.7,56.1,21.7,17.8,12.1.7,36.5-6.6,49.9-9.6,15.8-27.4,31.8-42.6,42.3-13.1,8.6-25.9,15.4-39.4,20.8-5.7,1.6-10.9,4.4-16.6,6-5.2,2.1-12.8.4-9,8.1,3.5,10.3,3.2,31.5-2.4,41.2,1,1.2-7.2,7.5-3,7.3,2.7,1.3,18.9,1.4,22.3,0,11.4-1,18-13.5,27-18.8,17.2-10.4,43.8-5.2,53.2,14.6,20.9,45.2-47.1,81.1-83,87-19.3,2.6-40.1,1.6-58.5-4.3-9.1-5.3-9.4,6.5-13.4,11.5-7.4,12.9-16.1,24.2-24.1,36.2,25.4,19.5,49.9,47.5,60.1,76.5,10.7-5.3,23.1-18.6,36-21,24.9-6.3,46.5,15.7,27.8,37.3-10.6,15.2-61.8,81.8-78.5,75.9Zm-58-178.6c18-23.7,34.8-49.4,43.2-76.7,13.3-35.5,3.6-20.6-23.2-24.6-11.5-1.2-24.8-2.6-35.6-4.8-12.8-5.7-11,1-13.3,12-16.9,81.6-54.7,69-6.5,80.2,7.3,2.4,13.8,4.4,20.4,8.4,3.2.9,11.8,7.7,15.1,5.5Zm-405-21c-.7-7,4.9-70.6,12.4-64.3,7.8,10.8,20.5,19.1,33.8,22.8,4.4,1-.4-9.7-.5-12-1.8-8.8-2-20.5-3-29.8.2-3.3-3.1-14.1.6-14.7,9.4-2.5,27.7-1.5,36.8,1.3,21.4,8.6,6-5.7.9-14.9-19-26-48.3-43.2-78-51.6-6-1.3-41.7-11.8-35.4,1.6,6.2,28.9-5.1,107.2,13.2,133.2.7,4,15.9,31.2,19.2,28.4Zm453.9-95.8c25.9-.2,36.5-20.8,31-44.6-.5-9.1-15.4-2-21.7-3-14.1,1.3-41.7,0-55-1.9-48.7-7.2-94.6-23.7-137.2-48.6-5.2-2.6-7.4,18.5-8.8,22.3-4.1,15.6,37.8,34.2,48.8,41.4,43.7,22.3,92.1,37.9,143,34.4Zm15.2-63c27.1-3,51.7-10.8,73.8-23.8,15.6-8.2,33.3-22.4,45.3-36.9,12.8-11.5-.3-11.1-9.5-20.5-5.2-6.8-8.5-2.1-14.7-.9-8.6,2.4-16,4.1-25.4,5-29.8,4.1-60.8-3.3-87.8-11.8-36-13.9-78.6-22.1-117.3-11.3-18.3,5.6-39.5,11.4-52.6,26.6,16.9,19.4,41.9,40.4,63.3,53.7,37.1,15.8,83.8,22,125,19.7Zm-275.1-1c17.3-2.2,36.4-3.8,52.1-10.4,0-4.4,3.2-9.6-3.5-10.5-12-4-22.7-9.9-35.1-17.1-46.9-32.2-76-29.8-130.4-29.4-7.3-1.3-15.6-2.5-22.4-4.5-2.5.4-14.8-7-12.5-1.7,9.6,29.2,38,53,66.2,63,24.7,9.7,58.3,12.6,85.5,10.6Zm55-34.4c-33.1-23.7-48.4-64.9-87.1-80.3-18.3-7.5-40-7.1-59.4-12.4-7.1.8-26.5-14.6-22.1-1.1,3.1,15.1,9.4,30.5,17.6,43.6,5.9,5.8,25.1,0,34.8,3.1,15.9.6,30.9,5.7,44.8,10.9,24.3,10.2,47.2,30.2,71.5,36.3Z"/><path class="uuid-4b683be4-cb64-4b49-ac04-c11da620f766" d="m514.7,700.1c-9.3-1.1-12.5-9-18.7-15.6-6.6-7.2-19.8-22.5-27.1-28.5-28.7-28.6-64-43.5-102.9-50.2-20.5,17.3-43.1,41.1-69.1,48-23.1,8.1-56.9,8.4-79.1-.1-23.7-10.5-17.3,1.9-34.7,14.2-12.6,12.7-43.5,33-54,9.7-2.4-19.5,13.2-36.4,21.7-52.1,30.5-46,19.3-40,73.2-41.2,17.8-1.8,35.1-11.9,42.8-28.1.4-1,11-15.4,4.8-12.2-65.9,36.3-163,34.4-220.1-19.5C-14.8,462.9,15.1,407.2,1.9,333.3c-14.7-31.3,58.8-10.3,70.6-6.1,18.4,6.9,34.7,15.5,49.9,29.3,33.4,26.7,42.8,64.5,58.6,100.8,16,31.9,54.2,50.2,89.6,40.9,11.1-2.4,11.4-6.5,15.3-15.9,2.9-6.6,8.1-15.6,11.1-22.8,3.6-6.4,7.8-13.8,11.4-20.2,8.5-12.7,2.6-9.3-7.1-6.4-36.6,11.8-24.2,16.4-44.8,35.7-17.5,15.5-49.7,15.9-61.9-7.5-24.3-45.6,40.8-88.8,76.3-105.9,3.7-4.7-11-.9-13.4-.9-12.1,1.8-36.6,2.1-49.1.5-49.3-2.9-99.3-24.8-122.1-70.3-5.7-10.6-7.7-15.8-11.5-26-1.8-4.7-8.9-14.3-.3-17.3,3.3-1.5,6.9,2.5,10,3.9,4.7,2.7,8.6,5.1,13.5,6.5,7.5,3.9,15.8,5.4,24.5,6.9,7.9,1.3,14.6,2.9,7.7-6.6-8.8-16.9-12.2-37-14.8-56.8-2.6-20.2,20.5,1.8,28.4,2.2,28.2,8.2,61,6,85.8,20.9,7.9,4,15.6,9.3,22.6,15.1,3.3,1.8,6.8,9.4,10.4,4.4,15-11.9,21.3-29.8,28.7-45.1,10.5-20.9,7.3-18.4,2.1-40.5-9.2-37.1-9.7-79.6-2.1-117,3.6-16.6,8.4-42.6,31.2-32.4,112.3,46.1,101.5,105,102.9,26.4.2-12.7,6.5-34.1,22.9-25.8,37.4,19.8,70,58,94.2,92.5,27.5,18.9,49.7,45.2,56.7,77.2,4.1,11.2,5.1,25.4,10.2,35.5,13.1,18.3,36.7,15.7,56.1,21.7,17.8,12.1.7,36.5-6.6,49.9-9.6,15.8-27.4,31.8-42.6,42.3-13.1,8.6-25.9,15.4-39.4,20.8-5.7,1.6-10.9,4.4-16.6,6-5.2,2.1-12.8.4-9,8.1,3.5,10.3,3.2,31.5-2.4,41.2,1,1.2-7.2,7.5-3,7.3,2.7,1.3,18.9,1.4,22.3,0,11.4-1,18-13.5,27-18.8,17.2-10.4,43.8-5.2,53.2,14.6,20.9,45.2-47.1,81.1-83,87-19.3,2.6-40.1,1.6-58.5-4.3-9.1-5.3-9.4,6.5-13.4,11.5-7.4,12.9-16.1,24.2-24.1,36.2,25.4,19.5,49.9,47.5,60.1,76.5,10.7-5.3,23.1-18.6,36-21,24.9-6.3,46.5,15.7,27.8,37.3-10.6,15.2-61.8,81.8-78.5,75.9Zm-13.4-41c3.5-9.7,8.2-19.6,13.2-28.8,3.6-6.3,6.5-7.9,2.7-14.3-14.3-39-51-74-88.5-90.7-13-5.3-25.3-8.4-38.3-11.5-6.5-1.8-6.8-13.9,2.5-12.6,15.2,2,28.9,6.2,42.4,11.5,21.5,10.4,17.7,14.6,32.3-6.5,12.8-17.1,23.7-37.7,30.6-57,17.5-48,6.9-17.9-59.5-34.6-30.4-7.1-60.5-18-88.7-33.6-9.8-5.4-19.6-11.4-28.5-17.9-7.2-8.2-16-6.1-24.8-2.2-29.8,9.4-94,47-91.9,83.1,7.6,33.3,45.3,20.4,53.9-5.1,22.4-20.1,56.6-29.3,87.4-26.1,11.4,1.6,7.4,18.2-4.2,14.9-12.4-1.2-10.2,6.9-16.3,13.6-49,74.3-59.7,131.8,45.4,150,32.2,4.8,62.4,16.6,88.2,36.2,10,7.6,19.6,16.5,29.7,24,2.7-.5,11.2,16.8,12.3,7.7Zm-233.6-14.5c20-1.8,39.4-8.3,55.6-22.2,39.4-34.5,7.5-16.2-21.3-40.5-4.8-.7-18.7-21.6-18.8-16.4-14.6,20.1-36.4,28.1-57.5,34.5-3.5,11-1.7,26.9-10,36.3,14.2,7.9,36,10,52.1,8.3Zm-89.1-90.9c22.7-1.6,45.1-6.4,66.1-14.5,9.5-4,19.6-9.1,28.8-14.6,2.6-9.1,2.7-12.1-7.9-9.5-36.9,5.3-75-13.8-93.6-45.5-25.9-49.9-31-92.5-86.3-119.8-6.9-5.8-73.3-29-66.5-10.9,6.1,30.6-5,108.3,14,135.7,23,52.4,87.6,80.9,145.3,79.1Zm378.1-80.1c29.2-3,78-25.1,80.4-57.9-4.2-26.5-33.5-22.3-47.5-4-11.1,9.1-28.7,11.4-42.9,9.5-5.6.8-19.6-6.6-21.7-1.2-3.8,9.6-6.5,18.9-10.5,28.3-1.4,4.7-4.5,13.7-6.8,19.3,14,5.5,34,8.1,49,6Zm-51.2-68.8c25.9-.2,36.5-20.8,31-44.6-.5-9.1-15.4-2-21.7-3-14.1,1.3-41.7,0-55-1.9-48.7-7.2-94.6-23.7-137.2-48.6-5.2-2.6-7.4,18.5-8.8,22.3-4.1,15.6,37.8,34.2,48.8,41.4,43.7,22.3,92.1,37.9,143,34.4Zm-61.9-313.9c-31.2,1.7-28.4,14.6-48.8-6.9-18.7-16.9-38.7-34.2-60.5-46.6-23.7-16.2-18.5-6.2-23.1,15.6-2.9,25.7-.7,53.7,4.3,78.8.9,10.4,11.4,29.7,8.1,37.4-10.6,18.1-17.7,38.5-30.6,55.6-4.7,6.6-13.4,16.1-22.3,22.5-1.9,2.3,3.9,4.1,5.5,6.2,67.6,57.9,154.6,92.8,244.4,88.3h0c31.9-3.4,59.7-13.9,85.4-30.8,7.3-5,52.6-37.5,33.9-43.4-17-9.5-19.4-15.4-9.3-32.9-6.1-3.1-15.1-5.2-20.9-10.2-19.9-14-16-43.3-26.2-63.5-21.7-55.5-82.2-78.9-132.4-79.1l-7.6,9Zm-198,249.9c17.3-2.2,36.4-3.8,52.1-10.4,0-4.4,3.2-9.6-3.5-10.5-12-4-22.7-9.9-35.1-17.1-46.9-32.2-76-29.8-130.4-29.4-7.3-1.3-15.6-2.5-22.4-4.5-2.5.4-14.8-7-12.5-1.7,9.6,29.2,38,53,66.2,63,24.7,9.7,58.3,12.6,85.5,10.6Zm55-34.4c-33.1-23.7-48.4-64.9-87.1-80.3-18.3-7.5-40-7.1-59.4-12.4-7.1.8-26.5-14.6-22.1-1.1,3.1,15.1,9.4,30.5,17.6,43.6,5.9,5.8,25.1,0,34.8,3.1,15.9.6,30.9,5.7,44.8,10.9,24.3,10.2,47.2,30.2,71.5,36.3Z"/><path class="uuid-4b683be4-cb64-4b49-ac04-c11da620f766" d="m552.1,312.3c-11.8-.6-22.8-4.6-32.8-10.4-6.7-2.8-17.4-19.7-2.8-17,13.1,11.1,31.1,16.7,49.3,13.7,5.3-2.5,11.6,7.3,4.2,10.1-4.9,2.8-12.6,4.1-17.9,3.6Zm-62.4-81.9c-17.7-7.2-19.2-53.9,6-46.1,18,7.9,17.3,49-6,46.1Zm76.2-6.5c-9.8-7.6-12.8-22.7-7.5-34.6,20.1-24.2,34,42,7.5,34.6Z"/></svg>